<svg xmlns="http://www.w3.org/2000/svg" xmlns:xlink="http://www.w3.org/1999/xlink" viewBox="0 0 590.47 66.42"><defs><style>.cls-1{fill:#ffffff;}.cls-2{clip-path:url(#clip-path);fill:#ffffff;}.cls-3{fill:#ffffff;}</style><clipPath id="clip-path" transform="translate(0 0)"><rect class="cls-1" width="590.47" height="66.42"/></clipPath></defs><g class="cls-2"><path d="M338.33,48.85H315.8l-5.42,16.47h-12L321,1.08h12.2L355.8,65.32H343.75ZM327,12.21s-1.45,6.34-2.71,10l-5.7,17.18h16.82l-5.7-17.18c-1.18-3.63-2.53-9.95-2.53-9.95Z" transform="translate(0 0)"/><path d="M373.08,1.09h20.71c7,0,10.14.54,12.93,1.82,6.43,2.88,10.5,9.05,10.5,17.55,0,7.69-4.07,14.82-10.86,17.57v.18a15.51,15.51,0,0,1,2.18,3.17l13.21,24h-13L396,41.37H384.74v24H373.07V1.09Zm22.16,30.13c6.24,0,10.12-3.71,10.12-10.13,0-6.15-2.61-9.95-11.75-9.95h-8.87V31.23Z" transform="translate(0 0)"/><path d="M441.66,1.09h21.9c19.81,0,32.74,11.76,32.74,32s-12.92,32.21-32.74,32.21h-21.9Zm21.27,54.19c13,0,21.34-7.69,21.34-22.17,0-14.28-8.52-22-21.34-22h-9.6V55.28Z" transform="translate(0 0)"/><path d="M517.22,48.85s7,6.79,16,6.79c4.89,0,9.33-2.53,9.33-7.77,0-11.51-30.32-9.52-30.32-29.23C512.24,8,521.47,0,533.77,0,546.44,0,553,6.88,553,6.88l-5.07,9.5s-6.17-5.6-14.22-5.6c-5.41,0-9.68,3.16-9.68,7.69,0,11.4,30.22,8.59,30.22,29.14,0,10.22-7.78,18.81-21.17,18.81-14.29,0-22.16-8.76-22.16-8.76Z" transform="translate(0 0)"/><path d="M206.66,1.09,196.08,45.53A57.08,57.08,0,0,0,195,52.31h-.19a54,54,0,0,0-1.18-6.78L182.23,1.09H172.1L160.53,45.53a49.69,49.69,0,0,0-1.18,6.78h-.18a59.28,59.28,0,0,0-1.08-6.78l-7.58-33.27-5.7,24.25L152,65.32H165.5l9.86-38A76,76,0,0,0,177,18.92h.18a75.49,75.49,0,0,0,1.63,8.41l9.87,38h13.48L218.72,1.08Z" transform="translate(0 0)"/><path d="M279.14,1.09,268.55,45.53a57.08,57.08,0,0,0-1.08,6.78h-.19a47.92,47.92,0,0,0-1.16-6.78L254.71,1.09H244.58L233,45.53a48.67,48.67,0,0,0-1.17,6.78h-.19a56.76,56.76,0,0,0-1.08-6.78L222.93,12.1l-5.7,24.26,7.27,29H238l9.85-38a76.89,76.89,0,0,0,1.64-8.41h.18a75.49,75.49,0,0,0,1.63,8.41l9.87,38h13.47L291.19,1.09Z" transform="translate(0 0)"/><path d="M40,48.85H17.47L12,65.32H0L22.62,1.09H34.84L57.46,65.32h-12ZM28.69,12.21s-1.46,6.34-2.72,10l-5.7,17.18H37.1L31.39,22.17c-1.17-3.63-2.53-10-2.53-10Z" transform="translate(0 0)"/><path d="M121.16,45.52a50.8,50.8,0,0,1,1.17,6.78h.18a59.28,59.28,0,0,1,1.08-6.78L134.18,1.08h12L129.65,65.32H116.18l-9.86-38a79.75,79.75,0,0,1-1.64-8.41h-.18a72.92,72.92,0,0,1-1.63,8.41L93,65.32H79.53L63.43,1.09h12L85.6,45.53a56.76,56.76,0,0,1,1.08,6.78h.19A48.92,48.92,0,0,1,88,45.53L99.62,1.09h10.12Z" transform="translate(0 0)"/><path class="cls-3" d="M579.43,22a11.07,11.07,0,0,1,11,11.23,11,11,0,1,1-22,0A11,11,0,0,1,579.43,22m0,21.15a9.63,9.63,0,0,0,9.65-9.92,9.59,9.59,0,1,0-19.17,0,9.57,9.57,0,0,0,9.52,9.92M575.84,27H580a3.43,3.43,0,0,1,3.6,3.6,3.25,3.25,0,0,1-2.39,3.32V34s.11.16.41.69L584,39.43h-1.52l-2.63-5.19H577.2v5.19h-1.34Zm4,6a2.23,2.23,0,0,0,2.35-2.45,2.19,2.19,0,0,0-2.35-2.37H577.2v4.81Z" transform="translate(0 0)"/></g></svg>