<svg version="1.1" id="Layer_1" xmlns="http://www.w3.org/2000/svg" xmlns:xlink="http://www.w3.org/1999/xlink" x="0px" y="0px" viewBox="0 0 50 50" style="enable-background:new 0 0 50 50; fill: #1e1d1c;" xml:space="preserve"><g><path d="M26.5,37.2c-1.1,1.3-2.1,2.7-3.2,4c-0.4,0.5-0.8,1.1-1.3,1.6c-0.9,1-2.6,0.9-3.4-0.2c-0.4-0.5-0.5-1.1-0.5-1.7c0-2.3,0-4.5,0-6.8c0-0.3-0.1-0.4-0.4-0.6c-3.2-1.3-6.4-2.6-9.5-4c-0.7-0.3-1.2-0.7-1.5-1.5c-0.3-1,0-2,0.9-2.6c1.1-0.7,2.2-1.3,3.3-2c9.6-5.6,19.3-11.1,28.9-16.7C41.4,6,43.1,7,43.4,8.2c0.1,0.3,0.1,0.7,0.1,1.1c-0.6,3.9-1.2,7.8-1.8,11.7c-0.6,4.1-1.2,8.2-1.9,12.3c-0.3,1.9-0.6,3.9-0.9,5.8c-0.2,1.1-1,2-2.1,2.1c-0.4,0-0.9-0.1-1.3-0.2c-2.9-1.2-5.7-2.4-8.6-3.6C26.8,37.3,26.6,37.3,26.5,37.2z M21.7,32.8c5,2.1,9.9,4.1,14.9,6.1c1.5-10,3.1-20,4.6-30.1C30.4,15,19.6,21.2,8.9,27.4C8.9,27.5,9,27.5,9,27.5c2.6,1.1,5.2,2.2,7.8,3.2c0.1,0,0.3,0,0.4-0.1c5.4-4.6,10.8-9.2,16.2-13.7c0.7-0.6,1.3-1.1,2-1.7c0.3-0.2,0.7-0.1,0.7,0.2c0,0.1-0.1,0.3-0.2,0.4c-3.5,4.2-7.1,8.4-10.6,12.6C24.1,29.8,22.9,31.3,21.7,32.8z M20.4,34.7c0,2.1,0,4.2,0,6.4c1.3-1.6,2.6-3.2,4-4.7C23,35.8,21.7,35.3,20.4,34.7z"/></g></svg>