<?xml version="1.0" encoding="utf-8"?>
<!-- Generator: Adobe Illustrator 23.0.3, SVG Export Plug-In . SVG Version: 6.00 Build 0)  -->
<svg version="1.1" id="Layer_1" xmlns="http://www.w3.org/2000/svg" xmlns:xlink="http://www.w3.org/1999/xlink" x="0px" y="0px"
	 viewBox="0 0 947.2 109.2" style="enable-background:new 0 0 947.2 109.2; fill: #1f1e1d;" xml:space="preserve">
<path d="M87.1,97.2c-9,7.9-19.7,12.1-33,12.1c-9.9,0-19.3-2.4-27.6-7.1c-8.2-4.7-14.7-11.4-19.4-19.7c-4.7-8.4-7-17.7-7.1-27.8
	C-0.5,24,23.9-0.3,54.2,0.1C67.3,0.3,78.6,4.3,88,12.4V2.1h22.6v105.1H87.1V97.2z M22.5,54.7c0.1,9.5,3,17.2,9.3,23.6
	c6.2,6.2,13.9,9.3,23.5,9.4C73.6,87.9,88,73.5,88,54.8c0-18.6-14.3-32.9-32.7-32.9C36.7,21.7,22.3,36.2,22.5,54.7L22.5,54.7z"/>
<path d="M206.6,48.5c0-18.4-8.2-27.4-22.8-27.5c-14-0.1-25.8,12.7-25.8,29.2v56.9h-22.1V2.1h20.6v9.4C164,4,173.4,0.1,185.4,0
	c24.3-0.2,43.4,19.4,43.4,44.9V107h-22.2L206.6,48.5L206.6,48.5z"/>
<path d="M323.2,48.5c0-18.4-8.2-27.4-22.8-27.5c-14-0.1-25.8,12.7-25.8,29.2v56.9h-22.1V2.1h20.6v9.4C280.6,4,290,0.1,302,0
	c24.3-0.2,43.4,19.4,43.4,44.9V107h-22.1V48.5H323.2z"/>
<path d="M448,97.2c-9,7.9-19.7,12.1-33,12.1c-9.9,0-19.3-2.4-27.6-7.1c-8.2-4.7-14.7-11.4-19.4-19.7c-4.7-8.4-7-17.7-7.1-27.8
	c-0.5-30.7,23.9-55,54.2-54.6c13.1,0.2,24.4,4.2,33.8,12.3V2.1h22.6v105.1H448V97.2z M383.4,54.7c0.1,9.5,3,17.2,9.3,23.6
	c6.2,6.2,13.9,9.3,23.5,9.4c18.3,0.2,32.7-14.2,32.7-32.9c0-18.6-14.3-32.9-32.7-32.9C397.6,21.7,383.3,36.2,383.4,54.7L383.4,54.7z
	"/>
<path d="M567.6,48.5c0-18.4-8.2-27.4-22.8-27.5c-14-0.1-25.8,12.7-25.8,29.2v56.9h-22.1V2.1h20.6v9.4C525,4,534.4,0.1,546.4,0
	c24.3-0.2,43.4,19.4,43.4,44.9V107h-22.2L567.6,48.5L567.6,48.5z"/>
<path d="M611.7,62.3v-60h22.1v57.6c0,17.8,9.6,28.6,24.2,28.6c14.9,0,24.4-10.8,24.4-28.6V2.3h22.1v60c0,27.8-18.6,46.9-46.4,46.9
	C630.4,109.3,611.7,90.1,611.7,62.3L611.7,62.3z"/>
<path d="M798.9,48.5c0-18.4-8.2-27.4-22.8-27.5c-14-0.1-25.8,12.7-25.8,29.2v56.9h-22.1V2.1h20.6v9.4C756.3,4,765.7,0.1,777.7,0
	c24.3-0.2,43.4,19.4,43.4,44.9V107H799V48.5H798.9z"/>
<path d="M923.7,97.2c-9,7.9-19.7,12.1-33,12.1c-9.9,0-19.3-2.4-27.6-7.1c-8.2-4.7-14.7-11.4-19.4-19.7c-4.7-8.4-7-17.7-7.1-27.8
	c-0.5-30.7,23.9-55,54.2-54.6c13.1,0.2,24.4,4.2,33.8,12.3V2.1h22.6v105.1h-23.5V97.2z M859.1,54.7c0.1,9.5,3,17.2,9.3,23.6
	c6.2,6.2,13.9,9.3,23.5,9.4c18.3,0.2,32.7-14.2,32.7-32.9c0-18.6-14.3-32.9-32.7-32.9C873.3,21.7,858.9,36.2,859.1,54.7L859.1,54.7z
	"/>
</svg>
